<svg width="917" height="1052" viewBox="0 0 917 1052" xmlns="http://www.w3.org/2000/svg"><title>Gears</title><g stroke="#282C35" fill="none" fill-rule="evenodd"><g transform="rotate(-25 1459.72 488.59)"><path d="M212 37l10-33.74c.56-1.9 3-3.26 5.85-3.26h44.3c2.84 0 5.29 1.36 5.85 3.26L288 37h-76zm135.4 19.3l27.92-21.42c1.57-1.2 4.35-.87 6.64.8l35.85 26.04c2.3 1.67 3.47 4.21 2.81 6.08l-11.74 33.17-61.49-44.67zm98.19 95.2l35.18-.92c1.97-.05 4.03 1.85 4.9 4.55l13.7 42.14c.87 2.7.33 5.45-1.3 6.57l-29 19.93-23.48-72.28zm23.48 134.73l29 19.93c1.63 1.12 2.17 3.87 1.3 6.57l-13.7 42.14c-.87 2.7-2.93 4.6-4.9 4.55l-35.18-.91 23.48-72.28zm-60.19 122.8l11.74 33.17c.66 1.87-.52 4.4-2.81 6.08l-35.85 26.04c-2.3 1.67-5.07 2-6.64.8l-27.93-21.42 61.49-44.67zM288 473l-10 33.74c-.56 1.9-3 3.26-5.85 3.26h-44.3c-2.84 0-5.29-1.36-5.85-3.26L212 473h76zm-135.4-19.3l-27.92 21.42c-1.57 1.2-4.35.87-6.64-.8l-35.85-26.04c-2.3-1.67-3.47-4.21-2.81-6.08l11.74-33.17 61.49 44.67zm-98.19-95.2l-35.18.92c-1.97.05-4.03-1.85-4.9-4.55L.63 312.73c-.87-2.7-.33-5.45 1.3-6.57l29-19.93L54.4 358.5zM30.93 223.78l-29-19.93c-1.63-1.12-2.17-3.87-1.3-6.57l13.7-42.14c.87-2.7 2.93-4.6 4.9-4.55l35.18.91-23.48 72.28zm60.19-122.8L79.38 67.8c-.66-1.87.52-4.4 2.81-6.08l35.85-26.04c2.3-1.67 5.07-2 6.64-.8l27.93 21.42-61.49 44.67z" stroke-width="17" fill="#282C35"/><circle stroke-width="104" cx="250" cy="255" r="175"/></g><g transform="rotate(-39 1015.26 -261.68)"><path d="M165.51 28.89l7.8-26.35c.45-1.48 2.36-2.54 4.58-2.54h34.58c2.22 0 4.13 1.06 4.57 2.54l7.8 26.35h-59.33zm105.7 15.06l21.8-16.72c1.23-.94 3.4-.68 5.2.63l27.98 20.33c1.8 1.3 2.71 3.28 2.2 4.74l-9.17 25.9-48-34.88zm76.67 74.32l27.46-.71c1.55-.04 3.15 1.45 3.84 3.56l10.68 32.9c.69 2.1.27 4.25-1 5.12l-22.65 15.57-18.33-56.44zm18.33 105.2l22.64 15.56c1.28.87 1.7 3.02 1.01 5.13l-10.68 32.9c-.69 2.1-2.3 3.59-3.84 3.55l-27.46-.72 18.33-56.43zm-46.99 95.87l9.17 25.9c.51 1.45-.4 3.44-2.2 4.74l-27.98 20.33c-1.8 1.3-3.97 1.57-5.2.63l-21.8-16.73 48.01-34.87zm-94.37 49.94l-7.8 26.34c-.45 1.48-2.36 2.55-4.58 2.55H177.9c-2.22 0-4.13-1.07-4.57-2.55l-7.8-26.34h59.33zm-105.7-15.07l-21.8 16.73c-1.23.94-3.4.67-5.2-.63l-27.98-20.33c-1.8-1.3-2.71-3.29-2.2-4.74l9.17-25.9 48 34.87zM42.47 279.9l-27.46.72c-1.55.04-3.15-1.45-3.84-3.56L.5 244.15c-.69-2.1-.27-4.25 1-5.12l22.65-15.57 18.33 56.43zM24.15 174.71L1.5 159.14c-1.28-.87-1.7-3.02-1.01-5.13l10.68-32.9c.69-2.1 2.3-3.6 3.84-3.55l27.46.71-18.33 56.44zm46.99-95.88l-9.17-25.9c-.51-1.46.4-3.44 2.2-4.74l27.98-20.33c1.8-1.3 3.97-1.57 5.2-.63l21.8 16.72-48.01 34.88z" stroke-width="17" fill="#282C35"/><circle stroke-width="84" cx="195.18" cy="199.08" r="136.63"/></g><g transform="rotate(-26 597.15 -559.49)"><path d="M139.34 24.32l6.58-22.18C146.28.9 147.89 0 149.76 0h29.12c1.87 0 3.47.9 3.84 2.14l6.58 22.18h-49.96zm89 12.68l18.35-14.07c1.03-.8 2.86-.58 4.37.52l23.55 17.12c1.52 1.1 2.29 2.77 1.86 4l-7.72 21.8L228.33 37zm64.53 62.57l23.13-.6c1.3-.03 2.65 1.22 3.22 3l9 27.69c.58 1.78.22 3.58-.85 4.32l-19.06 13.1-15.44-47.5zm15.44 88.56l19.06 13.1c1.07.74 1.43 2.55.85 4.32l-9 27.7c-.57 1.77-1.92 3.02-3.22 2.99l-23.13-.6 15.44-47.51zm-39.56 80.72l7.72 21.8c.43 1.23-.34 2.9-1.86 4l-23.55 17.11c-1.51 1.1-3.34 1.32-4.37.53l-18.36-14.08 40.42-29.36zm-79.45 42.04l-6.58 22.18c-.37 1.25-1.97 2.14-3.84 2.14h-29.12c-1.87 0-3.48-.9-3.84-2.14l-6.58-22.18h49.96zm-89-12.68l-18.35 14.08c-1.03.79-2.86.57-4.37-.53l-23.56-17.12c-1.5-1.1-2.28-2.76-1.85-3.99l7.72-21.8 40.41 29.36zm-64.54-62.57l-23.12.6c-1.3.03-2.65-1.22-3.22-3l-9-27.69c-.58-1.77-.22-3.58.85-4.32l19.06-13.1 15.43 47.5zm-15.43-88.56l-19.06-13.1c-1.07-.74-1.43-2.54-.85-4.32l9-27.7c.57-1.77 1.92-3.02 3.22-2.99l23.12.6-15.43 47.51zm39.56-80.71l-7.72-21.8c-.43-1.23.34-2.9 1.85-4l23.56-17.12c1.51-1.1 3.34-1.32 4.37-.52L100.3 37 59.9 66.37z" stroke-width="17" fill="#282C35"/><circle stroke-width="74" cx="164.32" cy="167.61" r="115.02"/></g><g transform="rotate(-19 472.87 -1844.2)"><path d="M103.9 18.14l4.91-16.54c.28-.93 1.47-1.6 2.87-1.6h21.71c1.4 0 2.6.67 2.87 1.6l4.9 16.54H103.9zm66.37 9.45l13.69-10.5c.77-.58 2.13-.42 3.25.4l17.57 12.76c1.13.82 1.7 2.07 1.38 2.98l-5.75 16.26-30.14-21.9zm48.13 46.66l17.24-.45c.97-.02 1.98.91 2.4 2.24l6.72 20.65c.43 1.32.16 2.67-.64 3.22l-14.21 9.77-11.51-35.43zm11.51 66.04l14.21 9.77c.8.55 1.07 1.9.64 3.22l-6.71 20.65c-.43 1.33-1.44 2.26-2.4 2.24l-17.25-.45 11.51-35.43zm-29.5 60.19l5.75 16.26c.33.91-.25 2.16-1.38 2.98l-17.57 12.76c-1.12.82-2.48.98-3.25.4l-13.69-10.5 30.14-21.9zm-59.25 31.35l-4.9 16.54c-.28.93-1.48 1.6-2.87 1.6h-21.71c-1.4 0-2.6-.67-2.87-1.6l-4.9-16.54h37.25zm-66.36-9.45l-13.69 10.5c-.77.58-2.13.42-3.26-.4L40.3 219.72c-1.13-.82-1.7-2.07-1.38-2.98l5.75-16.26 30.14 21.9zm-48.13-46.66l-17.24.45c-.97.02-1.98-.91-2.4-2.24L.3 153.28c-.43-1.32-.16-2.67.63-3.22l14.22-9.77 11.5 35.43zm-11.51-66.04L.94 99.91c-.8-.55-1.06-1.9-.63-3.22l6.71-20.65c.43-1.33 1.44-2.26 2.4-2.24l17.25.45-11.51 35.43zm29.5-60.2l-5.75-16.25c-.33-.91.25-2.16 1.38-2.98L57.85 17.5c1.13-.82 2.5-.98 3.26-.4L74.8 27.6 44.66 49.5z" stroke-width="17" fill="#282C35"/><circle stroke-width="61" cx="122.53" cy="124.98" r="85.77"/></g></g></svg>